Tilt-Neon-Model-Skeleton.ufo
<glyph name="quotesingle" format="2">
  <advance width="297"/>
  <unicode hex="0027"/>
  <outline>
    <contour>
      <point x="148" y="438" type="move"/>
      <point x="148" y="640" type="line"/>
    </contour>
  </outline>
</glyph>
<glyph name="asterisk" format="2">
  <advance width="614"/>
  <unicode hex="002A"/>
  <outline>
    <contour>
      <point x="190" y="647" type="move"/>
      <point x="400" y="280" type="line"/>
    </contour>
    <contour>
      <point x="400" y="647" type="move"/>
      <point x="190" y="280" type="line"/>
    </contour>
    <contour>
      <point x="505" y="464" type="move"/>
      <point x="85" y="464" type="line"/>
    </contour>
  </outline>
</glyph>
<glyph name="period" format="2">
  <advance width="260"/>
  <unicode hex="002E"/>
  <outline>
    <contour>
      <point x="140.0" y="40.0" type="move" name="YACKK"/>
      <point x="106.0" y="45"/>
      <point x="106.0" y="79"/>
      <point x="140.0" y="84.0" type="curve" name="FREEZ"/>
    </contour>
  </outline>
</glyph>
<glyph name="slash" format="2">
  <advance width="490"/>
  <unicode hex="002F"/>
  <outline>
    <contour>
      <point x="378" y="730" type="move"/>
      <point x="98" y="-120" type="line"/>
    </contour>
  </outline>
</glyph>
<glyph name="seven" format="2">
  <advance width="483"/>
  <unicode hex="0037"/>
  <outline>
    <contour>
      <point x="75.0" y="635.0" type="move"/>
      <point x="413.0" y="635.0" type="line"/>
      <point x="413.0" y="595.0" type="line"/>
      <point x="172.0" y="40.0" type="line"/>
    </contour>
  </outline>
</glyph>
<glyph name="less" format="2">
  <advance width="447"/>
  <unicode hex="003C"/>
  <outline>
    <contour>
      <point x="357" y="476" type="move"/>
      <point x="80" y="310" type="line"/>
      <point x="357" y="141" type="line"/>
    </contour>
  </outline>
</glyph>
<glyph name="A" format="2">
  <advance width="651"/>
  <unicode hex="0041"/>
  <outline>
    <contour>
      <point x="84.34927312185451" y="40.0" type="move"/>
      <point x="298.34927312185454" y="640.0" type="line"/>
      <point x="352.34927312185454" y="640.0" type="line"/>
      <point x="565.3492731218546" y="40.0" type="line"/>
    </contour>
    <contour>
      <point x="502.34927312185454" y="218.0" type="move"/>
      <point x="149.34927312185454" y="218.0" type="line"/>
    </contour>
  </outline>
</glyph>
<glyph name="E" format="2">
  <advance width="523"/>
  <unicode hex="0045"/>
  <outline>
    <contour>
      <point x="423.0" y="45.0" type="move" name="CAGED"/>
      <point x="125.0" y="45.0" type="line" name="JITUK"/>
      <point x="125.0" y="635.0" type="line" name="IPTAQ"/>
      <point x="423.0" y="635.0" type="line" name="CAGED"/>
    </contour>
    <contour>
      <point x="125.0" y="350.0" type="move" name="CFBCJ"/>
      <point x="403.0" y="350.0" type="line" name="CAGED"/>
    </contour>
  </outline>
</glyph>
<glyph name="H" format="2">
  <advance width="688"/>
  <unicode hex="0048"/>
  <outline>
    <contour>
      <point x="126.0" y="40.0" type="move" name="JITUK"/>
      <point x="126.0" y="640.0" type="line" name="IPTAQ"/>
    </contour>
    <contour>
      <point x="564.0" y="40.0" type="move" name="BBRIK"/>
      <point x="564.0" y="640.0" type="line" name="BACTA"/>
    </contour>
    <contour>
      <point x="126.0" y="354.0" type="move" name="CFBCJ"/>
      <point x="564.0" y="354.0" type="line" name="CAGED"/>
    </contour>
  </outline>
</glyph>
<glyph name="N" format="2">
  <advance width="688"/>
  <unicode hex="004E"/>
  <outline>
    <contour>
      <point x="563.0" y="640.0" type="move" name="BACTA"/>
      <point x="563.0" y="40.0" type="line" name="BBRIK"/>
      <point x="553.0" y="40.0" type="line"/>
      <point x="135.0" y="640.0" type="line"/>
      <point x="125.0" y="640.0" type="line" name="IPTAQ"/>
      <point x="125.0" y="40.0" type="line" name="JITUK"/>
    </contour>
  </outline>
</glyph>
<glyph name="P" format="2">
  <advance width="555"/>
  <unicode hex="0050"/>
  <outline>
    <contour>
      <point x="125.0" y="40.0" type="move"/>
      <point x="125.0" y="635.0" type="line"/>
      <point x="295.0" y="635.0" type="line" smooth="yes"/>
      <point x="405.0" y="635.0"/>
      <point x="475.0" y="565.0"/>
      <point x="475.0" y="466.0" type="curve" smooth="yes"/>
      <point x="475.0" y="364.0"/>
      <point x="405.0" y="298.0"/>
      <point x="307.0" y="298.0" type="curve" smooth="yes"/>
      <point x="165.0" y="298.0" type="line"/>
    </contour>
  </outline>
</glyph>
<glyph name="Q" format="2">
  <advance width="732"/>
  <unicode hex="0051"/>
  <outline>
    <contour>
      <point x="564.0" y="-29.0" type="move"/>
      <point x="404.0" y="230.0" type="line"/>
    </contour>
    <contour>
      <point x="368.0" y="35.0" type="curve" smooth="yes"/>
      <point x="205.0" y="35.0"/>
      <point x="90.0" y="162.0"/>
      <point x="90.0" y="341.0" type="curve" smooth="yes"/>
      <point x="90.0" y="519.0"/>
      <point x="205.0" y="645.0"/>
      <point x="368.0" y="645.0" type="curve" smooth="yes"/>
      <point x="530.0" y="645.0"/>
      <point x="642.0" y="518.0"/>
      <point x="642.0" y="341.0" type="curve" smooth="yes"/>
      <point x="642.0" y="162.0"/>
      <point x="530.0" y="35.0"/>
    </contour>
  </outline>
</glyph>
<glyph name="U" format="2">
  <advance width="668"/>
  <unicode hex="0055"/>
  <outline>
    <contour>
      <point x="115.0" y="640.0" type="move" name="IPTAQ"/>
      <point x="115.0" y="268.0" type="line" smooth="yes" name="IXEXE"/>
      <point x="115" y="133" name="WAGIP"/>
      <point x="207.09302325581393" y="35.0" name="GINKE"/>
      <point x="335.0" y="35.0" type="curve" smooth="yes" name="MAAAX"/>
      <point x="466.97309417040356" y="35.0" name="MAMUE"/>
      <point x="553" y="133" name="PFILA"/>
      <point x="553.0" y="268.0" type="curve" smooth="yes" name="BONEE"/>
      <point x="553.0" y="640.0" type="line" name="BACTA"/>
    </contour>
  </outline>
</glyph>
<glyph name="W" format="2">
  <advance width="888"/>
  <unicode hex="0057"/>
  <outline>
    <contour>
      <point x="79.97687435965628" y="640.0" type="move"/>
      <point x="261.9768743596563" y="40.0" type="line"/>
      <point x="290.9768743596563" y="40.0" type="line"/>
      <point x="441.9768743596563" y="640.0" type="line"/>
      <point x="593.9768743596563" y="40.0" type="line"/>
      <point x="627.9768743596563" y="40.0" type="line"/>
      <point x="807.9768743596563" y="640.0" type="line"/>
    </contour>
  </outline>
</glyph>
<glyph name="X" format="2">
  <advance width="617"/>
  <unicode hex="0058"/>
  <outline>
    <contour>
      <point x="101.80377816552401" y="640.0" type="move"/>
      <point x="529.8037781655239" y="40.0" type="line"/>
    </contour>
    <contour>
      <point x="521.8037781655239" y="640.0" type="move"/>
      <point x="87.80377816552401" y="40.0" type="line"/>
    </contour>
  </outline>
</glyph>
<glyph name="Z" format="2">
  <advance width="595"/>
  <unicode hex="005A"/>
  <outline>
    <contour>
      <point x="105.0" y="635.0" type="move"/>
      <point x="490.0" y="635.0" type="line"/>
      <point x="490.0" y="605.0" type="line"/>
      <point x="105.0" y="75.0" type="line"/>
      <point x="105.0" y="45.0" type="line"/>
      <point x="490.0" y="45.0" type="line"/>
    </contour>
  </outline>
</glyph>
<glyph name="bracketleft" format="2">
  <advance width="430"/>
  <unicode hex="005B"/>
  <outline>
    <contour>
      <point x="345" y="723" type="move"/>
      <point x="158.0" y="723.0" type="line"/>
      <point x="158.0" y="-113.0" type="line"/>
      <point x="345" y="-113" type="line"/>
    </contour>
  </outline>
</glyph>
<glyph name="asciicircum" format="2">
  <advance width="560"/>
  <unicode hex="005E"/>
  <outline>
    <contour>
      <point x="112" y="303" type="move"/>
      <point x="277" y="640" type="line"/>
      <point x="447" y="303" type="line"/>
    </contour>
  </outline>
</glyph>
<glyph name="underscore" format="2">
  <advance width="535"/>
  <unicode hex="005F"/>
  <outline>
    <contour>
      <point x="537" y="-78" type="move"/>
      <point x="-2" y="-78" type="line"/>
    </contour>
  </outline>
</glyph>
<glyph name="e" format="2">
  <advance width="548"/>
  <unicode hex="0065"/>
  <outline>
    <contour>
      <point x="108" y="249" type="move"/>
      <point x="463" y="249" type="line"/>
      <point x="467" y="377"/>
      <point x="394" y="463"/>
      <point x="282" y="463" type="curve" smooth="yes"/>
      <point x="168" y="463"/>
      <point x="84" y="377"/>
      <point x="84" y="248" type="curve" smooth="yes"/>
      <point x="84" y="56"/>
      <point x="267" y="-24"/>
      <point x="451" y="80" type="curve"/>
    </contour>
  </outline>
</glyph>
<glyph name="f" format="2">
  <advance width="364"/>
  <unicode hex="0066"/>
  <outline>
    <contour>
      <point x="57.241780626552625" y="453.0" type="move"/>
      <point x="307.2417806265526" y="453.0" type="line"/>
    </contour>
    <contour>
      <point x="338.2417806265526" y="676.0" type="move"/>
      <point x="249.2417806265526" y="721.0"/>
      <point x="163.2417806265526" y="678.0"/>
      <point x="163.2417806265526" y="584.0" type="curve" smooth="yes"/>
      <point x="163.2417806265526" y="40.0" type="line"/>
    </contour>
  </outline>
</glyph>
<glyph name="h" format="2">
  <advance width="568"/>
  <unicode hex="0068"/>
  <outline>
    <contour>
      <point x="111" y="40" type="move" name="YACKK"/>
      <point x="111" y="695" type="line" name="FREEZ"/>
    </contour>
    <contour>
      <point x="466" y="40" type="move" name="YACKK"/>
      <point x="466" y="290" type="line" smooth="yes"/>
      <point x="466" y="401"/>
      <point x="406" y="463"/>
      <point x="311" y="463" type="curve" smooth="yes"/>
      <point x="195" y="463"/>
      <point x="111" y="375"/>
      <point x="111" y="273" type="curve"/>
    </contour>
  </outline>
</glyph>
<glyph name="j" format="2">
  <advance width="245"/>
  <unicode hex="006A"/>
  <outline>
    <contour>
      <point x="129" y="458" type="move" name="FREEZ"/>
      <point x="129" y="-17" type="line" smooth="yes"/>
      <point x="129.0" y="-118.0"/>
      <point x="56" y="-141"/>
      <point x="-15" y="-114" type="curve"/>
    </contour>
    <contour>
      <point x="129" y="639" type="move" name="YACKK"/>
      <point x="129" y="682" type="line" name="FREEZ"/>
    </contour>
  </outline>
</glyph>
<glyph name="k" format="2">
  <advance width="501"/>
  <unicode hex="006B"/>
  <outline>
    <contour>
      <point x="115" y="695" type="move"/>
      <point x="115" y="40" type="line"/>
    </contour>
    <contour>
      <point x="414" y="458" type="move"/>
      <point x="183" y="272" type="line"/>
      <point x="424" y="40" type="line"/>
    </contour>
  </outline>
</glyph>
<glyph name="u" format="2">
  <advance width="568"/>
  <unicode hex="0075"/>
  <outline>
    <contour>
      <point x="458" y="458" type="move" name="YACKK"/>
      <point x="458" y="40" type="line" name="FREEZ"/>
    </contour>
    <contour>
      <point x="102" y="458" type="move" name="YACKK"/>
      <point x="102" y="207" type="line" smooth="yes"/>
      <point x="102" y="96"/>
      <point x="162" y="34"/>
      <point x="258" y="34" type="curve" smooth="yes"/>
      <point x="373" y="34"/>
      <point x="458" y="122"/>
      <point x="458" y="224" type="curve"/>
    </contour>
  </outline>
</glyph>
<glyph name="v" format="2">
  <advance width="489"/>
  <unicode hex="0076"/>
  <outline>
    <contour>
      <point x="64.10652630063213" y="458.0" type="move"/>
      <point x="227.1065263006321" y="40.0" type="line"/>
      <point x="264.10652630063214" y="40.0" type="line"/>
      <point x="426.10652630063214" y="458.0" type="line"/>
    </contour>
  </outline>
</glyph>
<glyph name="x" format="2">
  <advance width="499"/>
  <unicode hex="0078"/>
  <outline>
    <contour>
      <point x="91" y="458" type="move"/>
      <point x="416" y="40" type="line"/>
    </contour>
    <contour>
      <point x="411" y="458" type="move"/>
      <point x="82" y="40" type="line"/>
    </contour>
  </outline>
</glyph>
<glyph name="y" format="2">
  <advance width="488"/>
  <unicode hex="0079"/>
  <outline>
    <contour>
      <point x="63.810148167531" y="458.0" type="move"/>
      <point x="242.810148167531" y="75.0" type="line"/>
    </contour>
    <contour>
      <point x="424.810148167531" y="458.0" type="move"/>
      <point x="162.810148167531" y="-125.0" type="line"/>
    </contour>
  </outline>
</glyph>
<glyph name="sterling" format="2">
  <advance width="541"/>
  <unicode hex="00A3"/>
  <outline>
    <contour>
      <point x="102" y="45" type="move"/>
      <point x="181" y="45"/>
      <point x="226" y="89"/>
      <point x="226" y="161" type="curve" smooth="yes"/>
      <point x="226" y="249"/>
      <point x="154" y="389"/>
      <point x="154" y="497" type="curve" smooth="yes"/>
      <point x="154" y="632"/>
      <point x="279" y="681"/>
      <point x="440" y="613" type="curve"/>
    </contour>
    <contour>
      <point x="90" y="324" type="move"/>
      <point x="416" y="324" type="line"/>
    </contour>
    <contour>
      <point x="80" y="45" type="move"/>
      <point x="456" y="45" type="line"/>
    </contour>
  </outline>
</glyph>
<glyph name="ordfeminine" format="2">
  <advance width="495"/>
  <unicode hex="00AA"/>
  <outline>
    <contour>
      <point x="399" y="178" type="move"/>
      <point x="106" y="178" type="line"/>
    </contour>
    <contour>
      <point x="386" y="354" type="move" name="YACKK"/>
      <point x="386" y="642" type="line" name="FREEZ"/>
    </contour>
    <contour>
      <point x="247" y="350" type="curve" smooth="yes" name="MAAAX"/>
      <point x="328" y="350" name="MAMUE"/>
      <point x="386" y="412" name="PFILA"/>
      <point x="386" y="498" type="curve" smooth="yes" name="BONEE"/>
      <point x="386" y="584" name="BLUJA"/>
      <point x="326" y="645" name="NOOKS"/>
      <point x="246" y="645" type="curve" smooth="yes" name="RENLY"/>
      <point x="165" y="645" name="YUTUP"/>
      <point x="106.0" y="584" name="SAMNN"/>
      <point x="106.0" y="498" type="curve" smooth="yes" name="IXEXE"/>
      <point x="106.0" y="412" name="WAGIP"/>
      <point x="165" y="350" name="GINKE"/>
    </contour>
  </outline>
</glyph>
<glyph name="logicalnot" format="2">
  <advance width="490"/>
  <unicode hex="00AC"/>
  <outline>
    <contour>
      <point x="80" y="388" type="move"/>
      <point x="390.0" y="388.0" type="line"/>
      <point x="390" y="194" type="line"/>
    </contour>
  </outline>
</glyph>
<glyph name="macron" format="2">
  <advance width="490"/>
  <unicode hex="00AF"/>
  <anchor x="0" y="497.0" name="top"/>
  <anchor x="245" y="497.0" name="center"/>
  <outline>
    <contour>
      <point x="370.0" y="648.0" type="move"/>
      <point x="120.0" y="648.0" type="line"/>
    </contour>
  </outline>
</glyph>
<glyph name="threesuperior" format="2">
  <advance width="419"/>
  <unicode hex="00B3"/>
  <outline>
    <contour>
      <point x="110.0" y="333" type="move"/>
      <point x="211.0" y="295"/>
      <point x="321.0" y="321"/>
      <point x="321.0" y="399" type="curve" smooth="yes"/>
      <point x="321.0" y="469"/>
      <point x="238.0" y="495"/>
      <point x="136.0" y="482" type="curve"/>
      <point x="314.0" y="635.0" type="line"/>
      <point x="112.0" y="635.0" type="line"/>
    </contour>
  </outline>
</glyph>
<glyph name="mu.math" format="2">
  <advance width="568"/>
  <unicode hex="00B5"/>
  <outline>
    <contour>
      <point x="102.0" y="-110.0" type="move"/>
      <point x="102.0" y="458.0" type="line"/>
    </contour>
    <contour>
      <point x="458.0" y="458.0" type="move" name="YACKK"/>
      <point x="458.0" y="40.0" type="line" name="FREEZ"/>
    </contour>
    <contour>
      <point x="102.0" y="207.0" type="move"/>
      <point x="102.0" y="96.0"/>
      <point x="162.0" y="34.0"/>
      <point x="258.0" y="34.0" type="curve" smooth="yes"/>
      <point x="373.0" y="34.0"/>
      <point x="458.0" y="122.0"/>
      <point x="458.0" y="224.0" type="curve"/>
    </contour>
  </outline>
</glyph>
<glyph name="ae" format="2">
  <advance width="938"/>
  <unicode hex="00E6"/>
  <outline>
    <contour>
      <point x="474" y="40" type="move" name="YACKK"/>
      <point x="474" y="458" type="line" name="FREEZ"/>
    </contour>
    <contour>
      <point x="280" y="34" type="curve" smooth="yes" name="MAAAX"/>
      <point x="393" y="34" name="MAMUE"/>
      <point x="474" y="124" name="PFILA"/>
      <point x="474" y="249" type="curve" smooth="yes" name="BONEE"/>
      <point x="474" y="374" name="BLUJA"/>
      <point x="391" y="463" name="NOOKS"/>
      <point x="279" y="463" type="curve" smooth="yes" name="RENLY"/>
      <point x="166" y="463" name="YUTUP"/>
      <point x="84" y="374" name="SAMNN"/>
      <point x="84" y="249" type="curve" smooth="yes" name="IXEXE"/>
      <point x="84" y="124" name="WAGIP"/>
      <point x="166" y="34" name="GINKE"/>
    </contour>
    <contour>
      <point x="498.0" y="249.0" type="move"/>
      <point x="853.0" y="249.0" type="line"/>
      <point x="857.0" y="377.0"/>
      <point x="784.0" y="463.0"/>
      <point x="672.0" y="463.0" type="curve" smooth="yes"/>
      <point x="558.0" y="463.0"/>
      <point x="474.0" y="377.0"/>
      <point x="474.0" y="248.0" type="curve" smooth="yes"/>
      <point x="474.0" y="56.0"/>
      <point x="657.0" y="-24.0"/>
      <point x="841.0" y="80.0" type="curve"/>
    </contour>
  </outline>
</glyph>
<glyph name="oslash" format="2">
  <advance width="600"/>
  <unicode hex="00F8"/>
  <outline>
    <contour>
      <point x="288" y="34" type="curve" smooth="yes"/>
      <point x="170" y="34"/>
      <point x="84" y="125"/>
      <point x="84" y="249" type="curve" smooth="yes"/>
      <point x="84" y="373"/>
      <point x="170" y="463"/>
      <point x="288" y="463" type="curve" smooth="yes"/>
      <point x="407" y="463"/>
      <point x="493" y="373"/>
      <point x="493" y="249" type="curve" smooth="yes"/>
      <point x="493" y="125"/>
      <point x="407" y="34"/>
    </contour>
    <contour>
      <point x="133" y="-29" type="move"/>
      <point x="444.0" y="526.0" type="line"/>
    </contour>
  </outline>
</glyph>
<glyph name="oe" format="2">
  <advance width="957"/>
  <unicode hex="0153"/>
  <outline>
    <contour>
      <point x="288" y="34" type="curve" smooth="yes"/>
      <point x="170" y="34"/>
      <point x="84" y="125"/>
      <point x="84" y="249" type="curve" smooth="yes"/>
      <point x="84" y="373"/>
      <point x="170" y="463"/>
      <point x="288" y="463" type="curve" smooth="yes"/>
      <point x="407" y="463"/>
      <point x="493" y="373"/>
      <point x="493" y="249" type="curve" smooth="yes"/>
      <point x="493" y="125"/>
      <point x="407" y="34"/>
    </contour>
    <contour>
      <point x="517.0" y="249.0" type="move"/>
      <point x="872.0" y="249.0" type="line"/>
      <point x="876.0" y="377.0"/>
      <point x="803.0" y="463.0"/>
      <point x="691.0" y="463.0" type="curve" smooth="yes"/>
      <point x="577.0" y="463.0"/>
      <point x="493.0" y="377.0"/>
      <point x="493.0" y="248.0" type="curve" smooth="yes"/>
      <point x="493.0" y="56.0"/>
      <point x="676.0" y="-24.0"/>
      <point x="860.0" y="80.0" type="curve"/>
    </contour>
  </outline>
</glyph>
<glyph name="emdash" format="2">
  <advance width="805"/>
  <unicode hex="2014"/>
  <outline>
    <contour>
      <point x="700" y="308" type="move"/>
      <point x="105" y="308" type="line"/>
    </contour>
  </outline>
</glyph>
<glyph name="quotedblleft" format="2">
  <advance width="474"/>
  <unicode hex="201C"/>
  <outline>
    <contour>
      <point x="159" y="645.0" type="move"/>
      <point x="118" y="574.0"/>
      <point x="102" y="489.0"/>
      <point x="145" y="450.0" type="curve"/>
    </contour>
    <contour>
      <point x="359" y="645.0" type="move"/>
      <point x="318" y="574.0"/>
      <point x="302" y="489.0"/>
      <point x="345" y="450.0" type="curve"/>
    </contour>
  </outline>
</glyph>
<glyph name="minus" format="2">
  <advance width="476"/>
  <unicode hex="2212"/>
  <outline>
    <contour>
      <point x="396" y="308" type="move"/>
      <point x="80" y="308" type="line"/>
    </contour>
  </outline>
</glyph>
